<svg xmlns="http://www.w3.org/2000/svg" width="1600" height="1000" viewBox="0 0 1600 1000"><rect width="1600" height="1000" fill="#071018"/><rect x="24" y="24" width="120" height="952" rx="18" fill="#101827" stroke="#ffffff1f"/><rect x="164" y="24" width="1412" height="952" rx="18" fill="#0b1320" stroke="#ffffff1f"/><rect x="42" y="44" width="84" height="84" rx="18" fill="#7c3aed"/><text x="84" y="97" text-anchor="middle" fill="white" font-size="34" font-family="Arial" font-weight="700">A</text><g fill="#d7dce5" font-family="Arial" font-size="13" text-anchor="middle"><text x="84" y="168">Command</text><text x="84" y="238">Alerts</text><text x="84" y="308">Payments</text><text x="84" y="378">Graph</text><text x="84" y="448">Copilot</text><text x="84" y="518">Agents</text><text x="84" y="588">AML</text><text x="84" y="658">Security</text></g><rect x="188" y="48" width="1364" height="88" rx="16" fill="#111b2a" stroke="#ffffff1a"/><text x="220" y="82" fill="#4de6cf" font-size="15" font-family="Arial" letter-spacing="2">COMMAND CENTER</text><text x="220" y="114" fill="white" font-size="30" font-family="Arial" font-weight="700">Operating overview</text><rect x="188" y="154" width="1364" height="108" rx="16" fill="#101927" stroke="#ffffff1a"/><g font-family="Arial"><text x="220" y="188" fill="#aab4c2" font-size="14">Live operating picture</text><text x="220" y="228" fill="white" font-size="28" font-weight="700">Financial Crime Defence</text><rect x="1260" y="180" width="250" height="50" rx="12" fill="#182536" stroke="#4de6cf55"/><text x="1385" y="212" text-anchor="middle" fill="#4de6cf" font-size="15">Score synthetic event</text></g><g font-family="Arial"><rect x="188" y="282" width="322" height="122" rx="16" fill="#111b2a" stroke="#ffffff1a"/><rect x="526" y="282" width="322" height="122" rx="16" fill="#111b2a" stroke="#ffffff1a"/><rect x="864" y="282" width="322" height="122" rx="16" fill="#111b2a" stroke="#ffffff1a"/><rect x="1202" y="282" width="350" height="122" rx="16" fill="#111b2a" stroke="#ffffff1a"/><text x="216" y="320" fill="#9da8b7" font-size="14">Live alerts</text><text x="216" y="370" fill="white" font-size="34" font-weight="700">24</text><text x="554" y="320" fill="#9da8b7" font-size="14">Tracked payments</text><text x="554" y="370" fill="white" font-size="34" font-weight="700">18</text><text x="892" y="320" fill="#9da8b7" font-size="14">Investigations</text><text x="892" y="370" fill="white" font-size="34" font-weight="700">9</text><text x="1230" y="320" fill="#9da8b7" font-size="14">Graph entities</text><text x="1230" y="370" fill="white" font-size="34" font-weight="700">146</text></g><rect x="188" y="424" width="1364" height="520" rx="18" fill="#101927" stroke="#ffffff1a"/><text x="220" y="468" fill="#4de6cf" font-size="14" font-family="Arial" letter-spacing="2">COMMAND MODULES</text><text x="220" y="500" fill="white" font-size="24" font-family="Arial" font-weight="700">Open a focused workspace</text><g font-family="Arial"><g fill="#121e2d" stroke="#ffffff1a"><rect x="220" y="530" width="400" height="170" rx="16"/><rect x="660" y="530" width="400" height="170" rx="16"/><rect x="1100" y="530" width="400" height="170" rx="16"/><rect x="220" y="730" width="400" height="170" rx="16"/><rect x="660" y="730" width="400" height="170" rx="16"/><rect x="1100" y="730" width="400" height="170" rx="16"/></g><g fill="white" font-size="20" font-weight="700"><text x="248" y="570">Alert stream</text><text x="688" y="570">Payment tracking</text><text x="1128" y="570">Identity graph</text><text x="248" y="770">Cases</text><text x="688" y="770">Copilot</text><text x="1128" y="770">AML workspace</text></g><g fill="#aab4c2" font-size="14"><text x="248" y="602">Real-time risk heatmap and alert queue.</text><text x="688" y="602">Stop, recall, and route high-risk payments.</text><text x="1128" y="602">Fraud-ring and consortium intelligence.</text><text x="248" y="802">Investigation, exposure, evidence and recovery.</text><text x="688" y="802">Case explanation, entity linking and SAR support.</text><text x="1128" y="802">AML, KYC, KYB, screening and governance.</text></g></g></svg>